<svg xmlns="http://www.w3.org/2000/svg" xmlns:svg="http://www.w3.org/2000/svg" id="svg16405" version="1.1" viewBox="0 0 120 120"><title id="title16468">iOS 7 Icon Template</title><g id="layer1" transform="translate(0 -932.36)"><g id="g16450" stroke="#000" transform="translate(-77.143 25.714)"><rect id="rect16346" width="120" height="120" x="77.143" y="906.65" fill="#4f5522" fill-opacity=".076" stroke-opacity=".239" rx="24" ry="24"/><path id="path16349" fill="none" stroke-linecap="round" stroke-linejoin="round" stroke-opacity=".239" stroke-width="1.016" d="m-260.11-621.46c-12.672-12.32-12.957-32.579-0.63733-45.25 12.32-12.672 32.579-12.957 45.25-0.63733 12.672 12.32 12.957 32.579 0.63733 45.25-12.155 12.503-32.083 12.972-44.813 1.0548" transform="matrix(.98437 0 0 .98437 371.23 1601)"/><path id="path16351" fill="none" stroke-linecap="round" stroke-linejoin="round" stroke-opacity=".239" stroke-width=".61" d="m-260.11-621.46c-12.672-12.32-12.957-32.579-0.63733-45.25 12.32-12.672 32.579-12.957 45.25-0.63733 12.672 12.32 12.957 32.579 0.63733 45.25-12.155 12.503-32.083 12.972-44.813 1.0548" transform="matrix(1.6406 0 0 1.6406 527.28 2023.9)"/><path id="path16353" fill="none" stroke-linecap="round" stroke-linejoin="round" stroke-opacity=".239" stroke-width="1.454" d="m-260.11-621.46c-12.672-12.32-12.957-32.579-0.63733-45.25 12.32-12.672 32.579-12.957 45.25-0.63733 12.672 12.32 12.957 32.579 0.63733 45.25-12.155 12.503-32.083 12.972-44.813 1.0548" transform="matrix(.68750 0 0 .68750 300.63 1409.7)"/><path id="path16355" fill="none" stroke-opacity=".239" stroke-width="1" d="m77.637 944.65h119.01"/><path id="path16357" fill="none" stroke-opacity=".239" stroke-width="1" d="m77.637 988.65h119.01"/><path id="path16359" fill="none" stroke-opacity=".239" stroke-width="1" d="m137.14 907.14v119.01"/><path id="path16361" fill="none" stroke-opacity=".239" stroke-width="1" d="m159.14 907.14v119.01"/><path id="path16363" fill="none" stroke-opacity=".239" stroke-width="1" d="m115.14 907.14v119.01"/><path id="path16365" fill="none" stroke-opacity=".239" stroke-width="1" d="m77.637 966.65h119.01"/><path id="path16367" fill="none" stroke-opacity=".239" stroke-width="1" d="m77.637 1019.1h119.01"/><path id="path16369" fill="none" stroke-opacity=".239" stroke-width="1" d="m77.637 914.15h119.01"/><path id="path16371" fill="none" stroke-opacity=".239" stroke-width="1" d="m189.64 907.14v119.01"/><path id="path16373" fill="none" stroke-opacity=".239" stroke-width="1" d="m84.643 907.14v119.01"/><path id="path16375" fill="none" stroke-opacity=".239" d="m77.643 1026.1 119-118.95"/><path id="path16377" fill="none" stroke-opacity=".239" d="m196.64 1026.1-119-118.95"/></g></g><metadata/></svg>